# xmcd
#
# Track frame offsets:
#	182
#	20585
#	41225
#
# Disc length: 786 seconds
#
# Revision: 0
# Processed by: cddbd v1.5PL3 Copyright (c) Steve Scherf et al.
# Submitted via: dBpowerAMP V4.0
#
DISCID=21031003
DTITLE=Evora Césaria - Trois mornas de Césaria Evora
DYEAR=1900
DGENRE=Chanson
TTITLE0=Miss perfumado
TTITLE1=Papa Joachin Paris
TTITLE2=Odji Maguado
EXTD=
EXTT0=
EXTT1=
EXTT2=
PLAYORDER=
